<?xml version="1.0" encoding="utf-8"?>
<!-- Generator: Adobe Illustrator 18.1.1, SVG Export Plug-In . SVG Version: 6.00 Build 0)  -->
<!DOCTYPE svg PUBLIC "-//W3C//DTD SVG 1.1//EN" "http://www.w3.org/Graphics/SVG/1.1/DTD/svg11.dtd">
<svg version="1.1" id="Layer_1" xmlns="http://www.w3.org/2000/svg" xmlns:xlink="http://www.w3.org/1999/xlink" x="0px" y="0px"
	 viewBox="0 0 10 10.3" enable-background="new 0 0 10 10.3" xml:space="preserve">
<g>
	<path fill="#FFFFFF" d="M3.4,1.5C3.4,2.3,2.7,3,1.9,3S0.4,2.3,0.4,1.5C0.4,0.7,1.1,0,1.9,0S3.4,0.7,3.4,1.5z M9.4,1.5
		C9.4,2.3,8.7,3,7.9,3S6.4,2.3,6.4,1.5C6.4,0.7,7.1,0,7.9,0S9.4,0.7,9.4,1.5z"/>
	<g>
		<path fill="#FFFFFF" d="M0.7,6.6c0,0,0.1,0.1,0.3,0.3c0.2,0.2,0.5,0.5,0.8,0.8c0.4,0.3,0.9,0.5,1.4,0.7c0.3,0.1,0.6,0.1,0.9,0.2
			C4.3,8.7,4.7,8.7,5,8.7c0.4,0,0.7,0,1-0.1c0.3,0,0.6-0.1,0.9-0.2c0.5-0.2,1-0.4,1.4-0.7c0.8-0.6,1.1-1.2,1.1-1.1l0.7,0.2
			c0,0,0,0.2-0.2,0.5C9.6,7.7,9.4,8.2,9,8.6C8.8,8.9,8.5,9.1,8.3,9.3C8,9.5,7.6,9.7,7.3,9.8c-0.4,0.1-0.7,0.3-1.1,0.3
			c-0.4,0.1-0.8,0.1-1.1,0.1c-0.5,0-0.8,0-1.2-0.1C3.4,10.1,3,10,2.7,9.8C2.3,9.7,2,9.5,1.7,9.3C1.4,9.1,1.2,8.9,1,8.6
			C0.2,7.7,0,6.9,0,6.9L0.7,6.6z"/>
	</g>
</g>
</svg>
