<?xml version="1.0" encoding="utf-8"?>
<!-- Generator: Adobe Illustrator 18.1.1, SVG Export Plug-In . SVG Version: 6.00 Build 0)  -->
<!DOCTYPE svg PUBLIC "-//W3C//DTD SVG 1.1//EN" "http://www.w3.org/Graphics/SVG/1.1/DTD/svg11.dtd">
<svg version="1.1" id="Layer_1" xmlns="http://www.w3.org/2000/svg" xmlns:xlink="http://www.w3.org/1999/xlink" x="0px" y="0px"
	 viewBox="0 0 21.2 19.7" enable-background="new 0 0 21.2 19.7" xml:space="preserve">
<path fill="#FFFFFF" d="M16.7,0c0,0-0.5-0.1-0.7,0.5l-1.8,4.2c0,0-0.3,0.6,0.2,1.2l1.3,1.7c0,0,0.5,0.4,0.1,1
	c-0.4,0.5-2.3,4-7.2,6.2c0,0-0.6,0.4-1.1-0.2c-0.4-0.6-1.8-2.8-2.7-2.4l-4.5,2.1c0,0-0.4,0-0.3,0.8c0.1,0.8,0,4.5,5.3,4.5
	c6.3,0,15.9-9.1,15.9-14.8c0,0,0-4.8-3-4.8H16.7z"/>
</svg>
