<?xml version="1.0" encoding="utf-8"?>
<!-- Generator: Adobe Illustrator 18.1.1, SVG Export Plug-In . SVG Version: 6.00 Build 0)  -->
<!DOCTYPE svg PUBLIC "-//W3C//DTD SVG 1.1//EN" "http://www.w3.org/Graphics/SVG/1.1/DTD/svg11.dtd">
<svg version="1.1" id="Layer_1" xmlns="http://www.w3.org/2000/svg" xmlns:xlink="http://www.w3.org/1999/xlink" x="0px" y="0px"
	 viewBox="0 0 13.3 16" enable-background="new 0 0 13.3 16" xml:space="preserve">
<g>
	<path fill="#252325" d="M6.7,0C4.7,0,2.8,1.3,2.8,3.9v1.9h-1C0.7,5.7,0,6.5,0,7.6v6.5C0,15.2,0.7,16,1.9,16l9.6,0
		c1.1,0,1.9-0.8,1.9-1.9V7.6c0-1.1-0.8-1.9-1.9-1.9h-0.9l0-1.9C10.5,1.3,8.6,0,6.7,0z M6.7,1.6c1.3,0,2.2,1,2.2,2.2
		c0,1.3-0.5,2.5-2.2,3.1C7,6.4,7.1,6.2,7.2,5.7C5.4,5.9,4.4,4.9,4.4,3.8S5.4,1.6,6.7,1.6z"/>
	<path fill="#6FC062" d="M10.1,11c0,1.9-1.5,3.4-3.4,3.4c-1.9,0-3.4-1.5-3.4-3.4c0-1.9,1.5-3.4,3.4-3.4C8.5,7.6,10.1,9.1,10.1,11"/>
</g>
</svg>
